<svg xmlns="http://www.w3.org/2000/svg" viewBox="0 0 1919 1080"><defs><style>.cls-1,.cls-3,.cls-5{fill:none;}.cls-2{fill:#c1d3fe;}.cls-3{stroke:red;stroke-width:2px;}.cls-3,.cls-5{stroke-miterlimit:10;}.cls-4{fill:#edf2fb;}.cls-5{stroke:#4881d5;stroke-width:15.5px;}.cls-6{fill:#4881d5;}</style></defs><title>NuageShocked</title><g id="Calque_2" data-name="Calque 2"><rect class="cls-1" width="1919" height="1080"/></g><g id="Calque_1" data-name="Calque 1"><path class="cls-2" d="M126.91,782.49c0,111.24,70.91,205.92,170,241.31q-7.75.48-15.64.47C137.52,1024.27,21,907.76,21,764c0-140.5,111.33-255,250.59-260.08,3.21-.12,6.42-.18,9.66-.18a259.13,259.13,0,0,1,106.22,22.61c-1.46,0-2.91,0-4.38,0A256,256,0,0,0,126.91,782.49Z" transform="translate(-0.5 -0.5)"/><line class="cls-3" x1="297.71" y1="1023.77" x2="280.75" y2="1023.77"/><path class="cls-2" d="M395.7,440.54A175.67,175.67,0,0,0,441.53,559a259.37,259.37,0,0,0-160.28-55.21c-3.24,0-6.45.06-9.66.18,16.06-134.79,130.79-239.31,269.9-239.31q8.44,0,16.75.5A175.92,175.92,0,0,0,395.7,440.54Z" transform="translate(-0.5 -0.5)"/><path class="cls-2" d="M719.32,268.13a206.35,206.35,0,0,0,14.47,76.2,271.4,271.4,0,0,0-139.47-74.58c.72-1.13,1.43-2.26,2.17-3.37A461.8,461.8,0,0,1,853.6,74.66,206,206,0,0,0,719.32,268.13Z" transform="translate(-0.5 -0.5)"/><path class="cls-4" d="M1900,676.48c0,150.77-84.81,281.73-209.32,347.79H298.21l-1.32-.47c-99.07-35.39-170-130.07-170-241.31A256,256,0,0,1,383.09,526.33c1.47,0,2.92,0,4.38,0A258.79,258.79,0,0,1,441.53,559,175.92,175.92,0,0,1,558.24,265.13a271,271,0,0,1,36.07,4.62h0a271.4,271.4,0,0,1,139.47,74.58A206.81,206.81,0,0,1,853.6,74.66h.06a449.45,449.45,0,0,1,48-11.26.57.57,0,0,1,.15,0,463.32,463.32,0,0,1,81.56-7.21c176.26,0,329.43,99,406.93,244.35A393.23,393.23,0,0,1,1506.55,283C1723.85,283,1900,459.18,1900,676.48Z" transform="translate(-0.5 -0.5)"/><path class="cls-2" d="M1564.69,280.63a308.47,308.47,0,0,0-53,8.73,6.53,6.53,0,0,0-5.55-2.28,167.58,167.58,0,0,0-22.18,2.46,6,6,0,0,0-6.29-3.4c-11.65,1.4-23.26,3.12-34.78,5.34q-8.51,1.63-16.94,3.6c-4.09.95-12.21,4.61-16.32,4-6.42-1-11.47,4.84-8.33,10.95q6.76,13.16,12.8,26.65a5.59,5.59,0,0,0,.3.6,58,58,0,0,0-5,6.33c-5.43,7.9,7.48,15.26,12.86,7.43,7.32-10.66,19.56-17,30.69-23a273.72,273.72,0,0,1,35.47-15.94,285.8,285.8,0,0,1,76.35-16.59C1574.25,294.76,1574.24,279.9,1564.69,280.63Z" transform="translate(-0.5 -0.5)"/><path class="cls-5" d="M1900,675.88c0,150.79-84.83,281.76-209.35,347.81H281.25C137.52,1023.69,21,907.16,21,763.43c0-140.49,111.33-255,250.59-260.07,16.06-134.8,130.79-239.31,269.9-239.31a273.6,273.6,0,0,1,52.82,5.12c81.82-128.41,225.47-213.6,389-213.6,176.26,0,329.41,99,406.93,244.34a392.9,392.9,0,0,1,116.29-17.47C1723.85,282.44,1900,458.59,1900,675.88Z" transform="translate(-0.5 -0.5)"/><ellipse class="cls-6" cx="1163.72" cy="527.89" rx="33.15" ry="55.26"/><path class="cls-6" d="M439.06,549.65C371.9,498.05,281,481.8,200.19,507.45c-9.11,2.89-4.43,17,4.7,14.09,75.5-24,161.36-9.15,224.24,39.15C436.68,566.49,446.66,555.48,439.06,549.65Z" transform="translate(-0.5 -0.5)"/><path class="cls-6" d="M1421.77,344.56l-27.42-54.42c-4.31-8.54-17.13-1-12.83,7.5l27.42,54.42C1413.24,360.6,1426.06,353.09,1421.77,344.56Z" transform="translate(-0.5 -0.5)"/><path class="cls-6" d="M738.58,334.33c-56.49-53.5-134.81-81.81-212.49-76.21-9.48.68-9.55,15.54,0,14.85,73.85-5.32,148.18,20.91,202,71.87C735,351.41,745.54,340.92,738.58,334.33Z" transform="translate(-0.5 -0.5)"/><ellipse class="cls-6" cx="748.82" cy="528.2" rx="33.15" ry="55.26"/><circle class="cls-6" cx="960" cy="739" r="78.5"/></g></svg>